<?xml version="1.0" encoding="UTF-8"?>
<svg width="100" height="100" viewBox="0 0 100 100" fill="none" xmlns="http://www.w3.org/2000/svg">
  <!-- Flame top part (magenta gradient) -->
  <path d="M50 5C58 15 68 20 63 38C58 56 40 46 45 28C50 10 45 5 50 5Z" fill="url(#pinkGradient)"/>
  
  <!-- Flame bottom part (blue gradient) -->
  <path d="M50 35C58 45 68 50 63 68C58 86 40 76 45 58C50 40 45 35 50 35Z" fill="url(#blueGradient)"/>
  
  <!-- Torch base (blue gradient) -->
  <path d="M35 70L65 70L75 90L25 90L35 70Z" fill="url(#blueGradient)"/>
  
  <!-- Gradients definitions -->
  <defs>
    <linearGradient id="pinkGradient" x1="40" y1="5" x2="60" y2="56" gradientUnits="userSpaceOnUse">
      <stop offset="0%" stop-color="#FF00AA"/>
      <stop offset="100%" stop-color="#FF0066"/>
    </linearGradient>
    <linearGradient id="blueGradient" x1="40" y1="35" x2="60" y2="90" gradientUnits="userSpaceOnUse">
      <stop offset="0%" stop-color="#00AAFF"/>
      <stop offset="100%" stop-color="#0088FF"/>
    </linearGradient>
  </defs>
</svg>
